# xmcd CD database file
#
# Track frame offsets:
#	150
#	900
#	1650
#	55319
#	332550
#
# Disc length: 4440 seconds
#
# Revision: 0
# Processed by: cddbd v1.5.1PL0 Copyright (c) Steve Scherf et al.
# Submitted via: CDex 1.51
#
DISCID=29115605
DTITLE=BEAT CRUSADERS - HIT IN THE USA
DYEAR=1900
DGENRE=Rock
TTITLE0=HIT IN THE USA
TTITLE1=SUPERCOLLIDER
TTITLE2=B.A.D
TTITLE3=TRACK04
TTITLE4=TRACK05
EXTD=
EXTT0=
EXTT1=
EXTT2=
EXTT3=
EXTT4=
PLAYORDER=
